<?xml version="1.0" encoding="utf-8"?>
<!-- Generator: Adobe Illustrator 22.1.0, SVG Export Plug-In . SVG Version: 6.00 Build 0)  -->
<svg version="1.1" id="Layer_1" xmlns="http://www.w3.org/2000/svg" xmlns:xlink="http://www.w3.org/1999/xlink" x="0px" y="0px"
	 viewBox="0 0 101.7 31.3" style="enable-background:new 0 0 101.7 31.3;" xml:space="preserve">
<style type="text/css">
	.st0{fill:#005AAA;}
</style>
<path class="st0" d="M58.9,0c-1.8,0-3.3,1.5-3.3,3.3s1.5,3.3,3.3,3.3s3.3-1.5,3.3-3.3S60.7,0,58.9,0"/>
<g>
	<path class="st0" d="M88.3,21.1c0-0.4,0.1-0.8,0.1-1.2c0-6.3-5.2-11.4-11.7-11.4C70.2,8.5,65,13.6,65,19.9s5.2,11.4,11.7,11.4
		c4.9,0,9.1-3,10.8-7.1l-5-0.9c-1.1,2-3.2,3.4-5.6,3.4c-3.2,0-5.9-2.4-6.4-5.6C70.5,21.1,88.3,21.1,88.3,21.1z M76.9,13.2
		c2.7,0,5.1,1.8,6,4.3H70.8C71.8,15,74.1,13.2,76.9,13.2"/>
	<rect x="55.9" y="9" class="st0" width="6" height="22"/>
	<polygon class="st0" points="19.4,1.9 19.4,13.7 6.5,13.7 6.5,1.9 0,1.9 0,30.9 6.5,30.9 6.5,19.1 19.4,19.1 19.4,30.9 25.9,30.9 
		25.9,1.9 	"/>
	<path class="st0" d="M46.3,9v1.2c-1.7-1-3.8-1.7-5.9-1.7c-6.3,0-11.5,5.1-11.5,11.4S34,31.3,40.4,31.3c2.1,0,4.1-0.6,5.8-1.6v1.1
		H52V9H46.3z M40.7,26.5c-3.7,0-6.7-3-6.7-6.6s3-6.6,6.7-6.6s6.7,3,6.7,6.6C47.3,23.6,44.3,26.5,40.7,26.5"/>
	<path class="st0" d="M100.7,6.9c-5.5,1-9.7,5.7-9.7,11.5v12.5h5.7V18.2c0-2.9,2.2-5.3,5-5.7L100.7,6.9z"/>
</g>
</svg>
