<?xml version="1.0" encoding="UTF-8"?>
<svg width="141px" height="23px" viewBox="0 0 141 23" version="1.1" xmlns="http://www.w3.org/2000/svg" xmlns:xlink="http://www.w3.org/1999/xlink">
    <!-- Generator: Sketch 48.1 (47250) - http://www.bohemiancoding.com/sketch -->
    <title>Logo Hitachi</title>
    <desc>Created with Sketch.</desc>
    <defs></defs>
    <g id="menu" stroke="none" stroke-width="1" fill="none" fill-rule="evenodd" transform="translate(0.000000, -11.000000)">
        <g id="Logo-Hitachi" transform="translate(0.000000, 11.000000)" fill="#000000">
            <path d="M98.1233,16.8018 C97.6753,17.9008 96.7623,18.7188 95.5883,19.0878 C94.7643,19.3688 93.8593,19.5468 92.9413,19.5488 C91.8613,19.5508 90.8633,19.2768 89.8553,19.0108 C88.4043,18.3738 87.2253,17.0938 86.7613,15.5448 C86.4053,14.2628 86.2273,12.9818 86.2253,11.7028 C86.2223,10.0608 86.4793,8.5098 86.9383,7.1378 C87.4783,5.5838 88.6493,4.3908 90.1063,3.9398 C91.0103,3.5668 91.9193,3.3818 92.9113,3.3798 C93.8293,3.3778 94.6493,3.5608 95.4663,3.7428 C96.7363,4.1928 97.7403,5.1088 98.1923,6.2978 C98.3783,6.8378 98.4643,7.3888 98.4653,7.9368 L104.5583,7.9248 C104.4593,7.4728 104.3723,7.0108 104.2793,6.5588 C103.8233,4.2778 102.2783,2.4478 100.1823,1.5368 C98.0053,0.6298 95.5533,-0.0052 92.9053,-0.0002 C90.7363,0.0038 88.5543,0.4638 86.5623,1.2018 C84.4703,2.0248 82.7503,3.4868 81.6603,5.3218 C80.5853,7.2418 80.1243,9.4358 80.1283,11.7138 C80.1313,13.3638 80.4063,14.9168 80.9533,16.3778 C81.8663,19.1138 84.3203,21.1158 87.1363,22.0318 C88.9683,22.5728 90.9543,22.9288 92.9473,22.9258 C95.5953,22.9208 98.1333,22.3748 100.4063,21.3608 C102.3973,20.5378 103.8493,18.7058 104.3903,16.6098 C104.5733,15.8758 104.6653,15.2358 104.6633,14.5048 L98.5773,14.5158 C98.5783,15.3318 98.4803,16.1558 98.1233,16.8018 Z M27.6143,0.6688 L27.6543,22.5058 L33.4653,22.4948 L33.4253,0.6578 L27.6143,0.6688 Z M17.3503,0.6878 L17.3663,9.4568 L5.7343,9.4788 L5.7183,0.7088 L0.0003,0.7198 L0.0403,22.5568 L5.7583,22.5468 L5.7403,12.9508 L17.3723,12.9288 L17.3903,22.5248 L23.1093,22.5138 L23.0693,0.6768 L17.3503,0.6878 Z M140.9603,0.4588 L135.2403,0.4688 L135.2803,22.3068 L141.0003,22.2958 L140.9603,0.4588 Z M63.5103,14.2168 L67.4863,4.3448 L71.5113,14.2028 L63.5103,14.2168 Z M63.9393,0.6008 L53.8133,22.4578 L60.2563,22.4458 L62.0633,17.7868 L72.8703,17.7668 L74.7953,22.4188 L81.1433,22.4068 L70.9323,0.5878 L63.9393,0.6008 Z M58.7733,4.3618 L58.7663,0.6108 L35.4183,0.6538 L35.4253,4.4048 L44.2373,4.3878 L44.2703,22.4748 L49.9933,22.4648 L49.9603,4.3778 L58.7733,4.3618 Z M124.9773,0.4878 L124.9933,9.2578 L113.3703,9.2788 L113.3543,0.5098 L107.5383,0.5208 L107.5783,22.3578 L113.3943,22.3468 L113.3763,12.7508 L125.0003,12.7298 L125.0173,22.3248 L130.7403,22.3148 L130.7003,0.4778 L124.9773,0.4878 Z" id="Fill-1"></path>
        </g>
    </g>
</svg>