<svg xmlns="http://www.w3.org/2000/svg" width="137" height="55" viewBox="0 0 137 55"><g><g><g><path fill="#fff" d="M88.543 41.056a.92.92 0 0 0 .264-.661v-8.061a.92.92 0 0 0-.264-.661c-.397-.353-.925-.617-1.63-.881-.793-.309-1.674-.44-2.599-.44-1.762 0-3.084.484-3.965 1.453-.837.925-1.277 2.423-1.277 4.45 0 2.07.44 3.611 1.366 4.669.925 1.057 2.202 1.585 3.788 1.585.969 0 1.85-.132 2.599-.44.705-.264 1.277-.573 1.718-.97zm4.978-21.233V46.43h-4.758v-2.467s-1.674 2.555-5.903 2.555c-2.951 0-5.198-.925-6.74-2.731-1.541-1.85-2.334-4.185-2.334-6.96 0-3.128.969-5.683 2.775-7.445 1.85-1.806 4.361-2.687 7.445-2.687.88 0 1.674.044 2.334.176a7.45 7.45 0 0 1 1.895.661l.572.308V19.78s0-.44.397-.44h3.92c.397 0 .397.484.397.484zm-23.964-.44c.484 0 .44.484.44.484v4.185h-4.713v-4.14s-.088-.574.484-.574h3.833zm62.773 18.413c0-.44-.088-.66-.44-.749-1.234-.352-3.525-.705-5.33-.132-2.776.88-2.292 3.744-2.247 4.009.132.66.969 2.202 3.127 2.378 2.07.133 3.745-.396 4.537-.793.265-.132.353-.352.353-.66zm-3.519-11.233c6.171 0 7.802 3.964 7.714 6.3v13.523h-4.188l.044-1.806c-1.322 1.277-2.732 1.982-5.906 1.806-3.526-.176-6.26-2.335-6.391-5.418-.133-2.07.352-4.89 3.438-6.3 2.468-1.101 6.215-1.19 8.86-.396 0-.617.572-4.537-4.188-4.714-4.716-.22-5.906 3.216-5.906 3.216l-1.852-.617s.22-.528.22-.572c.618-1.586 2.601-4.978 8.155-4.978zm-26.48 8.017h9.56c.351 0 .263-.396.22-.528-.309-1.278-.838-2.203-1.587-2.864-.925-.749-1.982-1.145-3.303-1.145-1.454 0-2.82.529-3.7 1.454-.794.793-1.234 1.674-1.41 2.819 0 .088 0 .308.22.308zm11.753-4.89c1.629 1.895 2.466 4.494 2.51 7.71h-14.618l.088.616c.308 1.63 1.013 2.687 2.025 3.436a7.29 7.29 0 0 0 3.699 1.278c1.981.132 5.327-.044 6.824-2.776l1.673.53c-.528 1.453-1.937 5.946-8.453 5.946-3.346 0-6.032-.881-7.881-2.643-1.85-1.762-2.774-4.14-2.774-7.092 0-2.996.969-5.419 2.862-7.225 1.937-1.85 4.359-2.775 7.22-2.775 2.818 0 5.152 1.013 6.825 2.951zM3.7 30.617c0 1.762.265 3.568.661 5.286-1.718-3.392-2.643-7.092-2.643-10.88C1.718 11.232 13.436 0 27.84 0c11.145 0 21.1 6.872 24.669 16.916C47.62 9.559 39.206 5.022 30.175 5.022 15.595 5.022 3.7 16.475 3.7 30.572zM56.958 19.47c.44 0 .44.484.44.484.045.397 4.23 26.034 4.318 26.607h-6.3c-.044-.44-2.114-13.788-2.114-13.788C51.716 41.937 42.553 54.8 27.18 54.8 14.008 54.8 2.73 45.593 0 32.95a29.365 29.365 0 0 0 27.047 17.797c4.802 0 9.604-1.233 13.833-3.48l.132-.088v-.176c-.22-2.643-2.07-14.185-2.07-14.185-.926 4.405-3.745 8.238-7.93 10.837-3.392 2.07-7.268 3.083-10.484 2.73 15.11-3.347 16.475-24.051 16.607-26.518 0 0 0-.484.44-.484h4.802c.44 0 .44.484.44.484.045.397 3.128 21.894 3.128 21.894l.353-.441c5.11-6.387 5.682-13.083 5.682-17.753 0-2.114-.132-3.127-.22-3.744 0 0-.088-.485.44-.485h4.758zm12.951 7.356v19.637h-4.625V26.827z"/></g></g></g></svg>