<?xml version="1.0" encoding="utf-8"?>
<!-- Generator: Adobe Illustrator 15.0.0, SVG Export Plug-In  -->
<!DOCTYPE svg PUBLIC "-//W3C//DTD SVG 1.1//EN" "http://www.w3.org/Graphics/SVG/1.1/DTD/svg11.dtd" [
	<!ENTITY ns_flows "http://ns.adobe.com/Flows/1.0/">
]>
<svg version="1.1"
	 xmlns="http://www.w3.org/2000/svg" xmlns:xlink="http://www.w3.org/1999/xlink" xmlns:a="http://ns.adobe.com/AdobeSVGViewerExtensions/3.0/"
	 x="0px" y="0px" width="670px" height="124px" viewBox="0 -0.605 670 124"
	 overflow="visible" enable-background="new 0 -0.605 670 124" xml:space="preserve">
<defs>
</defs>
<rect x="346.406" y="94.069" width="12.474" height="27.728"/>
<rect x="591.564" y="94.101" width="12.474" height="27.694"/>
<path d="M513.735,102.651V95.68c-3.378-1.711-8.315-2.852-14.972-2.852c-13.301,0-15.062,5.688-15.062,8.614
	c0,4.894,2.992,7.15,8.014,8.925c5.872,2.071,10.789,1.381,10.789,3.859c0,0.716-0.947,1.438-3.439,1.438
	c-5.16,0-10.637-1.994-14.221-4.148v7.687c4.569,2.193,10.21,3.588,14.799,3.588c10.234,0,15.806-4.11,15.806-9.542
	c0-5.361-4.225-7.545-11.183-9.237c-4.463-1.08-7.4-1.08-7.4-2.801c0-0.948,1.253-1.67,3.683-1.67
	C504.777,99.541,509.622,100.809,513.735,102.651"/>
<path d="M668.282,102.651V95.68c-3.371-1.711-8.312-2.852-14.971-2.852c-13.301,0-15.064,5.688-15.064,8.614
	c0,4.894,2.994,7.15,8.008,8.925c5.875,2.071,10.802,1.381,10.802,3.859c0,0.716-0.952,1.438-3.443,1.438
	c-5.158,0-10.641-1.994-14.229-4.148v7.687c4.578,2.193,10.212,3.588,14.81,3.588c10.236,0,15.802-4.11,15.802-9.542
	c0-5.361-4.221-7.545-11.183-9.237c-4.457-1.08-7.392-1.08-7.392-2.801c0-0.948,1.252-1.67,3.668-1.67
	C659.322,99.541,664.17,100.809,668.282,102.651"/>
<path d="M462.226,122.612c12.17,0,16.772-4.766,16.772-11.908V94.101h-12.044v17.312c0,2.167-2.479,3.987-4.729,3.987
	c-2.248,0-4.725-1.82-4.725-3.987V94.101h-12.042v16.603C445.459,117.846,450.057,122.612,462.226,122.612"/>
<polygon points="633.604,121.796 633.604,115.874 621.252,115.874 621.252,110.014 631.824,110.014 631.824,104.299 
	621.252,104.299 621.252,99.984 633.604,99.984 633.604,94.101 609.399,94.101 609.399,121.796 "/>
<polygon points="518.701,100.259 526.768,100.259 526.768,121.796 539.402,121.796 539.402,100.259 547.474,100.259 547.474,94.101 
	518.701,94.101 "/>
<polygon points="400.968,121.796 400.968,94.069 388.292,94.069 388.292,106.893 378.122,94.069 364.217,94.069 364.217,121.796 
	376.892,121.796 376.892,108.293 387.315,121.796 "/>
<polygon points="311.066,104.596 305.198,94.101 293.613,94.101 304.817,112.033 304.817,121.796 317.456,121.796 317.456,111.822 
	328.522,94.101 316.939,94.101 "/>
<polygon points="282.58,121.796 292.701,94.101 280.985,94.101 275.027,111.613 269.092,94.101 257.379,94.101 267.52,121.796 "/>
<path d="M236.697,94.101l-10.144,27.697h11.838l0.933-3.268h9.192l0.938,3.268h11.837l-10.147-27.697H236.697z M240.855,113.16
	l3.056-10.682l3.067,10.682H240.855z"/>
<polygon points="224.529,121.796 224.529,115.874 212.188,115.874 212.188,110.014 222.753,110.014 222.753,104.299 
	212.188,104.299 212.188,99.984 224.529,99.984 224.529,94.106 200.331,94.106 200.331,121.796 "/>
<path d="M423.284,121.798c12.278,0,18.236-5.784,18.236-13.888c0-9.087-7.532-13.842-17.617-13.842h-17.597v27.729H423.284z
	 M421.861,114.015h-2.881v-13.163h2.433c4.243,0,6.588,2.639,6.588,6.886C428.001,110.999,425.211,114.015,421.861,114.015"/>
<path d="M552.357,94.101v27.697h13.391v-8.947l8.304,8.953h14.863l-11.069-10.89c4.811-0.188,8.659-3.388,8.659-8.175
	c0-5.595-4.319-8.639-9.493-8.639H552.357z M570.017,106.401h-4.269v-7.005h4.527c1.623,0,3.413,1.245,3.413,3.637
	C573.688,105.136,572.017,106.401,570.017,106.401"/>
<polygon points="182.412,94.101 182.412,103.792 173.526,103.792 173.526,94.101 160.941,94.101 160.941,121.796 173.526,121.796 
	173.526,111.845 182.412,111.845 182.412,121.796 194.994,121.796 194.994,94.101 "/>
<rect x="237.316" y="40.597" width="21.705" height="45.376"/>
<polygon points="203.813,40.597 195.963,56.525 188.105,40.597 167.209,40.597 160.941,85.973 181.216,85.973 183.028,67.022 
	195.963,85.973 208.891,67.022 210.706,85.973 230.981,85.973 224.711,40.597 "/>
<polygon points="311.38,40.597 265.303,40.597 265.303,52.989 277.902,52.989 277.902,85.983 298.785,85.983 298.785,52.989 
	311.38,52.989 "/>
<path d="M366.433,58.663V45.587c-7.508-3.635-16.429-5.926-24.923-5.926c-15.963,0-24.664,5.377-24.664,14.3
	c0,7.696,4.83,10.645,13.005,13.732c9.46,3.575,15.481,1.788,15.481,4.699c0,1.132-0.349,1.98-4.012,1.98
	c-8.533,0-16.733-3.39-22.654-6.775v13.548c7.559,3.447,16.874,5.645,24.474,5.645c10.258,0,24.758-2.393,24.758-14.486
	c0-8.421-7.267-12.803-17.113-15.052c-7.382-1.685-12.33-1.151-12.33-3.857c0-1.356,1.92-1.883,5.161-1.883
	C350.603,51.512,360.438,54.809,366.433,58.663"/>
<rect x="497.424" y="40.597" width="21.703" height="45.386"/>
<rect x="648.303" y="40.597" width="21.697" height="45.386"/>
<path d="M576.062,58.663V45.587c-7.511-3.635-16.435-5.926-24.929-5.926c-15.96,0-24.653,5.377-24.653,14.3
	c0,7.696,4.826,10.645,12.999,13.732c9.459,3.575,15.486,1.788,15.486,4.699c0,1.132-0.353,1.98-4.02,1.98
	c-8.526,0-16.727-3.39-22.654-6.775v13.548c7.568,3.447,16.876,5.645,24.475,5.645c10.256,0,24.755-2.393,24.755-14.486
	c0-8.421-7.26-12.803-17.104-15.052c-7.382-1.685-12.337-1.151-12.337-3.857c0-1.356,1.921-1.883,5.164-1.883
	C560.233,51.512,570.069,54.809,576.062,58.663"/>
<path d="M402.556,86.791c14.106,0,28.062-5.714,28.062-18.838V40.598h-21.184v27.846c0,3.697-2.979,6.774-6.878,6.774
	s-6.882-3.077-6.882-6.774V40.598h-21.189v27.354C374.484,81.077,388.446,86.791,402.556,86.791"/>
<path d="M473.901,85.983c12.54,0,16.733-5.834,16.733-12.051c0-5.909-3.383-9.774-8.225-11.644c3.622-1.79,5.641-5.394,5.641-9.382
	c0-7.331-6.589-12.31-13.594-12.31h-36.311v45.386H473.901z M465.418,50.236c2.427,0,3.76,1.724,3.76,3.605
	c0,2.112-1.714,3.384-3.686,3.384h-5.361v-6.989H465.418z M465.492,74.554h-5.361v-6.905h5.581c1.79,0,3.603,1.282,3.603,3.438
	C469.314,72.984,467.782,74.554,465.492,74.554"/>
<polygon points="618.735,40.597 618.735,56.592 606.409,56.592 606.409,40.597 584.826,40.597 584.826,85.983 606.409,85.983 
	606.409,69.787 618.735,69.787 618.735,85.983 640.318,85.983 640.318,40.597 "/>
<polygon fill="#e31f26" points="70.328,81.199 93.764,40.604 70.32,0 46.884,40.598 "/>
<polygon fill="#e31f26" points="70.328,81.199 93.764,121.796 140.645,121.796 117.199,81.199 "/>
<polygon fill="#e31f26" points="70.328,81.199 23.442,81.199 0,121.796 46.886,121.796 "/>
</svg>
